<svg xmlns="http://www.w3.org/2000/svg" version="1.1" xmlns:xlink="http://www.w3.org/1999/xlink" xmlns:svgjs="http://svgjs.com/svgjs" width="1920" height="1124" preserveAspectRatio="none" viewBox="0 0 1920 1124"><g mask="url(&quot;#SvgjsMask1101&quot;)" fill="none"><rect width="1920" height="1124" x="0" y="0" fill="rgba(244, 244, 244, 1)"></rect><path d="M1586.24 609.84a96.65 96.65 0 1 0 189.46 38.3z" stroke="rgba(47, 154, 236, 1)"></path><path d="M1389.69 647.2a91.79 91.79 0 1 0 73.21-168.35z" fill="rgba(47, 154, 236, 1)"></path><path d="M913.98 456.9a10.29 10.29 0 1 0 19.88 5.34z" stroke="rgba(47, 154, 236, 1)"></path><path d="M255.79 930.36L360.41 930.36L360.41 1034.98L255.79 1034.98z" fill="rgba(49, 219, 117, 1)"></path><path d="M1188.84 215.46 a37.54 37.54 0 1 0 75.08 0 a37.54 37.54 0 1 0 -75.08 0z" stroke="rgba(255, 219, 12, 1)"></path><path d="M1481.45 1035.07L1502.03 1035.07L1502.03 1052.8L1481.45 1052.8z" fill="rgba(49, 219, 117, 1)"></path><path d="M106.5 296.95 a42.95 42.95 0 1 0 85.9 0 a42.95 42.95 0 1 0 -85.9 0z" stroke="rgba(47, 154, 236, 1)"></path><path d="M1705.49 279.51L1721.68 279.51L1721.68 295.7L1705.49 295.7z" fill="rgba(255, 219, 12, 1)"></path><path d="M1420.8 835.89 a92.96 92.96 0 1 0 185.92 0 a92.96 92.96 0 1 0 -185.92 0z" fill="rgba(47, 154, 236, 1)"></path><path d="M310.11 59.2L353.25 59.2L353.25 66.99L310.11 66.99z" fill="rgba(255, 219, 12, 1)"></path><path d="M570.69 705.21L624.51 705.21L624.51 769.53L570.69 769.53z" fill="rgba(49, 219, 117, 1)"></path><path d="M1179.73 934.61L1219.05 934.61L1219.05 973.93L1179.73 973.93z" stroke="rgba(49, 219, 117, 1)"></path><path d="M1075.55 461.01L1089.96 461.01L1089.96 475.42L1075.55 475.42z" stroke="rgba(49, 219, 117, 1)"></path><path d="M91.32 532.51L163.41 532.51L163.41 640.24L91.32 640.24z" fill="rgba(255, 219, 12, 1)"></path><path d="M534.61 755.38a17.76 17.76 0 1 0-10.81-33.84z" fill="rgba(255, 219, 12, 1)"></path><path d="M973.64 919.76L978.01 919.76L978.01 999.54L973.64 999.54z" stroke="rgba(49, 219, 117, 1)"></path><path d="M1204.31 232.47L1303.91 232.47L1303.91 332.07L1204.31 332.07z" stroke="rgba(255, 219, 12, 1)"></path><path d="M620.94 1008.13L664.62 1008.13L664.62 1051.81L620.94 1051.81z" stroke="rgba(49, 219, 117, 1)"></path><path d="M1849.09 629.77 a60.44 60.44 0 1 0 120.88 0 a60.44 60.44 0 1 0 -120.88 0z" fill="rgba(49, 219, 117, 1)"></path><path d="M776.73 867.11a63.4 63.4 0 1 0-75.87-101.6z" stroke="rgba(49, 219, 117, 1)"></path><path d="M1321.88 557.8a30.36 30.36 0 1 0 7.72 60.22z" stroke="rgba(255, 219, 12, 1)"></path><path d="M652.42 625.07L696.99 625.07L696.99 652.12L652.42 652.12z" fill="rgba(47, 154, 236, 1)"></path></g><defs><mask id="SvgjsMask1101"><rect width="1920" height="1124" fill="#ffffff"></rect></mask></defs></svg>