<svg xmlns="http://www.w3.org/2000/svg" version="1.1" xmlns:xlink="http://www.w3.org/1999/xlink" xmlns:svgjs="http://svgjs.com/svgjs" width="1920" height="1124" preserveAspectRatio="none" viewBox="0 0 1920 1124"><g mask="url(&quot;#SvgjsMask11659&quot;)" fill="none"><rect width="1920" height="1124" x="0" y="0" fill="rgba(242, 242, 242, 1)"></rect><rect width="588" height="588" clip-path="url(&quot;#SvgjsClipPath11660&quot;)" x="796.73" y="-232.61" fill="url(#SvgjsPattern11661)" transform="rotate(85.26, 1090.73, 61.39)"></rect><rect width="72" height="72" clip-path="url(&quot;#SvgjsClipPath11662&quot;)" x="267.96" y="413.6" fill="url(#SvgjsPattern11663)" transform="rotate(291.57, 303.96, 449.6)"></rect><circle r="158.4159154397934" cx="230.72" cy="690.41" fill="rgba(36, 139, 255, 1)"></circle><path d="M158.4 381.99a5.6 5.6 0 1 0 7-8.75 5.6 5.6 0 1 0-7 8.75zM168.39 369.49a5.6 5.6 0 1 0 7-8.75 5.6 5.6 0 1 0-7 8.75zM178.38 356.99a5.6 5.6 0 1 0 6.99-8.75 5.6 5.6 0 1 0-6.99 8.75zM188.37 344.5a5.6 5.6 0 1 0 6.99-8.75 5.6 5.6 0 1 0-6.99 8.75z" stroke="rgba(90, 235, 100, 1)" stroke-width="1.9" stroke-dasharray="4, 4"></path><rect width="444" height="444" clip-path="url(&quot;#SvgjsClipPath11664&quot;)" x="1001.44" y="546.04" fill="url(#SvgjsPattern11665)" transform="rotate(15.31, 1223.44, 768.04)"></rect><circle r="174.47174702655028" cx="1017.59" cy="500.6" fill="rgba(255, 225, 47, 1)"></circle><rect width="396" height="396" clip-path="url(&quot;#SvgjsClipPath11666&quot;)" x="1021.01" y="113.54" fill="url(#SvgjsPattern11667)" transform="rotate(8.26, 1219.01, 311.54)"></rect><rect width="587.76" height="587.76" clip-path="url(&quot;#SvgjsClipPath11668&quot;)" x="1451.85" y="171.48" fill="url(#SvgjsPattern11669)" transform="rotate(73.66, 1745.73, 465.36)"></rect></g><defs><mask id="SvgjsMask11659"><rect width="1920" height="1124" fill="#ffffff"></rect></mask><pattern x="0" y="0" width="588" height="6" patternUnits="userSpaceOnUse" id="SvgjsPattern11661"><rect width="588" height="3" x="0" y="0" fill="rgba(90, 235, 100, 1)"></rect><rect width="588" height="3" x="0" y="3" fill="rgba(0, 0, 0, 0)"></rect></pattern><clipPath id="SvgjsClipPath11660"><circle r="147" cx="1090.73" cy="61.39"></circle></clipPath><pattern x="0" y="0" width="6" height="6" patternUnits="userSpaceOnUse" id="SvgjsPattern11663"><path d="M0 6L3 0L6 6" stroke="rgba(90, 235, 100, 1)" fill="none"></path></pattern><clipPath id="SvgjsClipPath11662"><circle r="18" cx="303.96" cy="449.6"></circle></clipPath><pattern x="0" y="0" width="6" height="6" patternUnits="userSpaceOnUse" id="SvgjsPattern11665"><path d="M0 6L3 0L6 6" stroke="rgba(90, 235, 100, 1)" fill="none"></path></pattern><clipPath id="SvgjsClipPath11664"><circle r="111" cx="1223.44" cy="768.04"></circle></clipPath><pattern x="0" y="0" width="396" height="6" patternUnits="userSpaceOnUse" id="SvgjsPattern11667"><rect width="396" height="3" x="0" y="0" fill="rgba(36, 139, 255, 1)"></rect><rect width="396" height="3" x="0" y="3" fill="rgba(0, 0, 0, 0)"></rect></pattern><clipPath id="SvgjsClipPath11666"><circle r="99" cx="1219.01" cy="311.54"></circle></clipPath><pattern x="0" y="0" width="9.48" height="9.48" patternUnits="userSpaceOnUse" id="SvgjsPattern11669"><path d="M0 9.48L4.74 0L9.48 9.48" stroke="rgba(36, 139, 255, 1)" fill="none"></path></pattern><clipPath id="SvgjsClipPath11668"><circle r="146.94" cx="1745.73" cy="465.36"></circle></clipPath></defs></svg>